<svg xmlns="http://www.w3.org/2000/svg"
     width="43.3494mm" height="43.3494mm"
     viewBox="0 0 512 512">
    <path id="Selection"
          fill="#459b65" stroke="transparent" stroke-width="1"
          d="M 310.00,6.42
           C 323.39,4.80 326.70,10.14 330.65,22.00
             334.94,34.89 335.69,48.66 333.56,62.00
             328.79,91.96 309.28,112.24 281.00,121.67
             275.75,123.42 269.51,125.28 264.00,125.83
             261.11,126.12 255.72,126.31 253.21,124.83
             249.73,122.77 247.89,116.69 246.67,113.00
             241.76,98.10 241.98,92.17 242.00,77.00
             242.05,46.69 265.19,19.98 293.00,10.09
             298.72,8.05 304.07,7.32 310.00,6.42 Z
           M 348.00,122.44
           C 392.36,116.75 427.64,147.05 444.58,186.00
             466.84,237.19 470.61,293.62 454.02,347.00
             454.02,347.00 444.69,373.00 444.69,373.00
             437.48,388.74 430.96,401.48 421.33,416.00
             418.39,420.44 413.44,428.21 409.71,431.66
             403.22,437.69 391.30,437.92 386.23,429.91
             383.82,426.11 384.01,422.29 384.00,418.00
             384.00,418.00 384.00,384.00 384.00,384.00
             383.88,373.86 380.73,353.07 378.35,343.00
             376.86,336.70 372.80,325.06 373.33,319.00
             374.14,309.58 378.98,301.89 379.00,286.00
             379.03,263.98 378.63,238.74 365.21,220.00
             340.56,185.57 290.34,192.62 273.87,231.00
             271.06,237.55 269.85,243.89 270.01,251.00
             270.62,277.65 298.31,306.83 319.00,320.97
             323.40,323.98 329.12,327.47 334.00,329.57
             337.81,331.22 343.71,332.82 346.15,336.21
             348.80,339.90 348.83,345.66 349.04,350.00
             349.04,350.00 350.00,371.00 350.00,371.00
             350.00,371.00 348.96,381.00 348.96,381.00
             348.96,381.00 348.96,390.00 348.96,390.00
             346.15,418.00 335.74,448.65 321.85,473.00
             310.77,492.42 302.50,505.27 278.00,505.00
             278.00,505.00 251.00,501.32 251.00,501.32
             237.58,502.35 230.52,507.18 214.00,507.00
             209.04,506.94 203.90,506.05 199.00,505.25
             167.95,500.12 143.97,483.94 122.00,462.00
             84.64,424.70 56.24,378.20 45.80,326.00
             43.96,316.79 41.11,301.11 41.00,292.00
             41.00,292.00 41.00,270.00 41.00,270.00
             41.02,259.92 43.59,244.07 45.60,234.00
             51.27,205.64 61.30,177.58 79.92,155.00
             92.06,140.28 113.97,123.52 134.00,124.01
             151.06,124.43 154.67,140.47 149.39,154.00
             149.39,154.00 137.42,181.00 137.42,181.00
             130.07,200.50 123.51,227.20 122.13,248.00
             121.17,261.37 120.89,274.63 122.13,288.00
             122.13,288.00 124.64,309.00 124.64,309.00
             124.22,318.96 110.28,320.97 113.76,335.00
             113.76,335.00 135.95,393.00 135.95,393.00
             137.47,397.07 141.48,411.07 147.78,408.60
             152.68,406.67 149.83,399.39 148.66,396.00
             148.66,396.00 135.21,361.00 135.21,361.00
             133.62,355.60 133.28,345.60 142.00,347.47
             147.05,348.56 149.10,353.73 150.80,358.00
             150.80,358.00 162.40,388.00 162.40,388.00
             164.19,392.48 166.49,399.71 172.00,400.63
             180.23,402.00 180.32,392.22 178.64,387.00
             178.64,387.00 163.76,348.00 163.76,348.00
             162.36,342.53 163.22,334.70 171.00,336.33
             176.23,337.43 178.60,343.60 180.40,348.00
             180.40,348.00 191.43,377.00 191.43,377.00
             192.85,380.31 195.41,386.34 199.03,387.60
             202.28,388.74 204.40,386.01 204.45,382.98
             204.49,380.30 201.50,372.78 200.40,370.00
             200.40,370.00 184.81,330.00 184.81,330.00
             182.51,323.97 178.48,312.79 174.47,308.10
             164.15,296.01 152.23,308.83 152.00,292.00
             151.53,257.15 163.25,218.74 181.20,189.00
             192.24,170.70 199.62,157.90 223.00,158.00
             223.00,158.00 251.00,162.00 251.00,162.00
             270.41,162.09 289.64,154.21 306.00,144.19
             322.44,134.11 327.59,126.26 348.00,122.44 Z
           M 313.00,205.52
           C 318.69,204.61 334.99,203.82 337.83,210.16
             339.55,213.98 333.39,215.00 331.00,215.63
             319.62,218.62 311.05,222.29 302.00,230.00
             295.17,235.83 294.33,236.86 288.89,244.00
             287.66,245.61 285.17,249.62 282.95,249.66
             280.71,249.70 279.67,246.78 279.38,244.99
             278.79,241.40 280.88,233.39 282.34,230.00
             287.91,217.08 299.73,209.08 313.00,205.52 Z" />
</svg>
